<svg xmlns="http://www.w3.org/2000/svg" version="1.1" xmlns:xlink="http://www.w3.org/1999/xlink" xmlns:svgjs="http://svgjs.dev/svgjs" width="1440" height="560" preserveAspectRatio="none" viewBox="0 0 1440 560"><g mask="url(&quot;#SvgjsMask1319&quot;)" fill="none"><rect width="1440" height="560" x="0" y="0" fill="url(&quot;#SvgjsLinearGradient1320&quot;)"></rect><path d="M1302.07 511.04a13.48 13.48 0 1 0-24.06-12.18z" fill="rgba(211, 119, 20, 0.6)"></path><path d="M645.24 432.89L664.84 432.89L664.84 452.49L645.24 452.49z" fill="rgba(231, 54, 53, 0.72)"></path><path d="M1279.94 142.39L1321.63 142.39L1321.63 166.45L1279.94 166.45z" stroke="rgba(231, 54, 53, 0.72)"></path><path d="M567.65 374.13L584.93 374.13L584.93 384.68L567.65 384.68z" fill="rgba(3, 123, 11, 0.66)"></path><path d="M337.86 482.64L361.67 482.64L361.67 490.59L337.86 490.59z" fill="rgba(3, 123, 11, 0.66)"></path><path d="M-1.38 551.98a11.85 11.85 0 1 0 23.7-0.5z" fill="rgba(231, 54, 53, 0.72)"></path><path d="M521.81 250.44L522.31 250.44L522.31 268.37L521.81 268.37z" stroke="rgba(211, 119, 20, 0.6)"></path><path d="M60.93 418.61L104.8 418.61L104.8 422.29L60.93 422.29z" stroke="rgba(211, 119, 20, 0.6)"></path><path d="M723.82 350.4L731.17 350.4L731.17 357.75L723.82 357.75z" stroke="rgba(231, 54, 53, 0.72)"></path><path d="M448.6 527.65a19.2 19.2 0 1 0-21.14-32.06z" stroke="rgba(231, 54, 53, 0.72)"></path><path d="M773.88 76.37 a46.68 46.68 0 1 0 93.36 0 a46.68 46.68 0 1 0 -93.36 0z" fill="rgba(3, 123, 11, 0.66)"></path><path d="M829.01 224.3a41.48 41.48 0 1 0-63.15-53.8z" stroke="rgba(211, 119, 20, 0.6)"></path><path d="M1128.61 502.67L1158.18 502.67L1158.18 532.24L1128.61 532.24z" fill="rgba(211, 119, 20, 0.6)"></path><path d="M1157.83 164.49a22.93 22.93 0 1 0-35.19 29.4z" stroke="rgba(231, 54, 53, 0.72)"></path><path d="M1271.27 157.39 a50.2 50.2 0 1 0 100.4 0 a50.2 50.2 0 1 0 -100.4 0z" fill="rgba(3, 123, 11, 0.66)"></path><path d="M831.41 154.78L844.95 154.78L844.95 168.32L831.41 168.32z" fill="rgba(3, 123, 11, 0.66)"></path><path d="M411.3 59.3L423.19 59.3L423.19 87.32L411.3 87.32z" stroke="rgba(3, 123, 11, 0.66)"></path><path d="M910.08 54.25 a1.97 1.97 0 1 0 3.94 0 a1.97 1.97 0 1 0 -3.94 0z" stroke="rgba(231, 54, 53, 0.72)"></path><path d="M24.99 445.75L51.48 445.75L51.48 472.24L24.99 472.24z" fill="rgba(211, 119, 20, 0.6)"></path><path d="M396.1 541.64 a19.46 19.46 0 1 0 38.92 0 a19.46 19.46 0 1 0 -38.92 0z" stroke="rgba(211, 119, 20, 0.6)"></path><path d="M163.57 516.04L210.05 516.04L210.05 518.14L163.57 518.14z" fill="rgba(231, 54, 53, 0.72)"></path><path d="M721.63 86.4a24.87 24.87 0 1 0 22.32 44.45z" fill="rgba(3, 123, 11, 0.66)"></path><path d="M529.06 273.23a33.86 33.86 0 1 0-65.81-15.96z" stroke="rgba(231, 54, 53, 0.72)"></path><path d="M343.38 340.6L391.03 340.6L391.03 353.29L343.38 353.29z" stroke="rgba(231, 54, 53, 0.72)"></path><path d="M525.14 479.73a30.11 30.11 0 1 0-55.98 22.2z" stroke="rgba(231, 54, 53, 0.72)"></path><path d="M1188.59 506.92L1223.72 506.92L1223.72 542.05L1188.59 542.05z" stroke="rgba(231, 54, 53, 0.72)"></path><path d="M150.76 444.78 a14.01 14.01 0 1 0 28.02 0 a14.01 14.01 0 1 0 -28.02 0z" stroke="rgba(231, 54, 53, 0.72)"></path><path d="M1358.34 340.6 a43.11 43.11 0 1 0 86.22 0 a43.11 43.11 0 1 0 -86.22 0z" fill="rgba(3, 123, 11, 0.66)"></path><path d="M1243.19 337.32 a34.78 34.78 0 1 0 69.56 0 a34.78 34.78 0 1 0 -69.56 0z" fill="rgba(211, 119, 20, 0.6)"></path><path d="M1139.52 248.36 a12.77 12.77 0 1 0 25.54 0 a12.77 12.77 0 1 0 -25.54 0z" stroke="rgba(231, 54, 53, 0.72)"></path><path d="M564.38 323.85L589.56 323.85L589.56 332.43L564.38 332.43z" fill="rgba(211, 119, 20, 0.6)"></path><path d="M125.66 131.91L141.98 131.91L141.98 148.23L125.66 148.23z" fill="rgba(3, 123, 11, 0.66)"></path><path d="M370.29 290.99L415.03 290.99L415.03 301.14L370.29 301.14z" stroke="rgba(231, 54, 53, 0.72)"></path></g><defs><mask id="SvgjsMask1319"><rect width="1440" height="560" fill="#ffffff"></rect></mask><linearGradient x1="15.28%" y1="-39.29%" x2="84.72%" y2="139.29%" gradientUnits="userSpaceOnUse" id="SvgjsLinearGradient1320"><stop stop-color="#0e2a47" offset="0"></stop><stop stop-color="rgba(10, 0, 52, 1)" offset="1"></stop></linearGradient></defs></svg>